<?xml version="1.0" encoding="UTF-8"?>
<svg width="25px" height="25px" viewBox="0 0 25 25" version="1.1" xmlns="http://www.w3.org/2000/svg" xmlns:xlink="http://www.w3.org/1999/xlink">
    <title>C2A63C39-31B8-4B62-AA3A-B4EA7A1E77FF</title>
    <g id="Asset-Artboard-Page" stroke="none" stroke-width="1" fill="none" fill-rule="evenodd">
        <g id="icon/youtube" fill="#FFFFFF" fill-rule="nonzero">
            <path d="M15.2154255,17.1002295 L15.2154255,20.9752526 C15.2154255,21.2615096 14.9261968,21.4930217 14.5757979,21.4930217 C14.2253989,21.4930217 13.9375,21.2595309 13.9375,20.9752526 L13.9375,17.1002295 C13.9375,16.8113342 14.2253989,16.5798222 14.5757979,16.5798222 C14.9261968,16.5798222 15.2154255,16.8113342 15.2154255,17.1002295 Z M10.3204787,5.21396723 C10.3204787,4.55438883 10.3763298,4.03991768 10.4867021,3.66725589 C10.5970745,3.29789199 10.7965426,3.00174129 11.0844415,2.77682505 C11.3723404,2.55124924 11.7400266,2.43846134 12.1881649,2.43846134 C12.5638298,2.43846134 12.8869681,2.51101496 13.1555851,2.65546263 C13.4268617,2.7999103 13.6369681,2.98723056 13.7799202,3.21874258 C13.9281915,3.45157375 14.0279255,3.68902198 14.081117,3.93372556 C14.1363032,4.18106746 14.1628989,4.55372926 14.1628989,5.05698757 L14.1628989,6.79365749 C14.1628989,7.4314698 14.1369681,7.90043005 14.087766,8.19658075 C14.0385638,8.49536976 13.9335106,8.77239269 13.768617,9.03292615 C13.606383,9.28950215 13.3949468,9.48143946 13.1422872,9.60214231 C12.8849734,9.72614305 12.5917553,9.78616468 12.2593085,9.78616468 C11.887633,9.78616468 11.5757979,9.73603673 11.3178191,9.62918502 C11.0591755,9.52563122 10.8603723,9.36601324 10.7180851,9.153629 C10.5744681,8.94256391 10.4734043,8.6833496 10.412234,8.38324143 C10.3510638,8.08313326 10.3211436,7.63066248 10.3211436,7.02912698 L10.3211436,5.21396723 L10.3204787,5.21396723 Z M11.5957447,7.94132391 C11.5957447,8.33047516 11.8869681,8.64773237 12.2426862,8.64773237 C12.5984043,8.64773237 12.8889628,8.33047516 12.8889628,7.94132391 L12.8889628,4.28594043 C12.8889628,3.89744875 12.5984043,3.58085112 12.2426862,3.58085112 C11.887633,3.58085112 11.5957447,3.89744875 11.5957447,4.28594043 L11.5957447,7.94132391 Z M15.2553191,9.09228821 C15.3284574,9.27235311 15.4461436,9.42075825 15.6043883,9.532227 C15.7599734,9.64171701 15.9621011,9.69646202 16.200133,9.69646202 C16.4102394,9.69646202 16.5990691,9.63973828 16.7613032,9.52233332 C16.9222074,9.40624753 17.0585106,9.23343799 17.1702128,9.0039047 L17.1416223,9.57114213 L18.7699468,9.57114213 L18.7699468,2.70559059 L17.4880319,2.70559059 L17.4880319,8.05081392 C17.4880319,8.33970926 17.2480053,8.57715748 16.9534574,8.57715748 C16.6615691,8.57715748 16.418883,8.34036884 16.418883,8.05081392 L16.418883,2.70559059 L15.081117,2.70559059 L15.081117,7.33649052 C15.081117,7.92747276 15.0930851,8.31992191 15.1090426,8.51911458 C15.1323138,8.71830726 15.1775266,8.90892541 15.2553191,9.09228821 Z M7.09042553,9.78748384 L8.62632979,9.78748384 L8.62832447,4.52140991 L10.4428191,0.00989367596 L8.76396277,0.00989367596 L7.79920213,3.36055194 L6.82047872,0 L5.15890957,0 L7.08909574,4.52338865 L7.09042553,9.78748384 Z M19.7792553,17.4880616 C19.7792553,17.133868 19.4860372,16.8436535 19.1263298,16.8436535 L19.0385638,16.8436535 C18.6795213,16.8436535 18.387633,17.1332085 18.387633,17.4880616 L18.380984,18.2854919 L19.7639628,18.2854919 L19.7792553,17.4880616 Z M23,14.4104688 L23,21.7845553 C23,23.5535446 21.4541223,25 19.5644947,25 L5.43550532,25 C3.54521277,25 2,23.5535446 2,21.7845553 L2,14.4104688 C2,12.6414796 3.54521277,11.1943646 5.43550532,11.1943646 L19.5644947,11.1943646 C21.4541223,11.1943646 23,12.6421391 23,14.4104688 Z M6.37832447,22.5839643 L6.37699468,14.8187479 L8.12898936,14.8187479 L8.12898936,13.6684431 L3.46010638,13.6605282 L3.46010638,14.7930243 L4.91755319,14.7969818 L4.91755319,22.5839643 L6.37832447,22.5839643 L6.37832447,22.5839643 Z M11.6276596,15.9756484 L10.1675532,15.9756484 L10.1675532,20.1224178 C10.1675532,20.7213149 10.2047872,21.0214231 10.1655585,21.1269556 C10.0465426,21.4475108 9.51329787,21.7904915 9.30518617,21.1619133 C9.26928191,21.0524233 9.30053191,20.7199958 9.30053191,20.1520988 L9.29388298,15.9756484 L7.84175532,15.9756484 L7.84640957,20.0841622 C7.84773936,20.7140596 7.83244681,21.184339 7.85106383,21.3980424 C7.88696809,21.7740021 7.87433511,22.2132813 8.22672872,22.4645806 C8.88364362,22.93486 10.1429521,22.3953249 10.4574468,21.7238741 L10.4541223,22.5806664 L11.6269947,22.5819856 L11.6276596,15.9756484 L11.6276596,15.9756484 Z M16.2998701,20.7239532 L16.2965426,17.2730391 C16.2952128,15.9578397 15.3031915,15.1696436 13.9554521,16.2335435 L13.962766,13.667124 L12.5039894,13.6697623 L12.4966755,22.5279002 L13.6961436,22.5100915 L13.8051862,21.958684 C15.3397606,23.3517136 16.3018617,22.3959845 16.2998701,20.7239532 Z M20.8696809,20.2655463 L19.775266,20.272142 C19.775266,20.3143551 19.7726064,20.3651426 19.7726064,20.419228 L19.7726064,21.024721 C19.7726064,21.3492336 19.5026596,21.6150437 19.174867,21.6150437 L18.9607713,21.6150437 C18.6329787,21.6150437 18.3630319,21.3512123 18.3630319,21.024721 L18.3630319,20.957444 L18.3630319,20.2899507 L18.3630319,19.4292009 L20.8703457,19.4292009 L20.8703457,18.4925995 C20.8703457,17.8099359 20.8537234,17.1259531 20.7978723,16.7341635 C20.6176862,15.4961349 18.8676862,15.3002401 17.9833777,15.9340949 C17.706117,16.1313089 17.4946809,16.3964594 17.3696809,16.7519721 C17.2446809,17.1074849 17.1848366,17.5929346 17.1848366,18.2116191 L17.1848366,20.2688442 C17.1801862,23.692056 21.3696809,23.2079255 20.8696809,20.2655463 Z" id="Shape"></path>
        </g>
    </g>
</svg>