<?xml version="1.0" encoding="UTF-8"?>
<svg width="30px" height="30px" viewBox="0 0 30 30" version="1.1" xmlns="http://www.w3.org/2000/svg" xmlns:xlink="http://www.w3.org/1999/xlink">
    <title>406E2D25-9AD7-455C-AAE1-651409F38BB7</title>
    <g id="Asset-Artboard-Page" stroke="none" stroke-width="1" fill="none" fill-rule="evenodd">
        <g id="icon_login" fill="#000000" fill-rule="nonzero">
            <g id="user-(3)">
                <path d="M14.9763594,0 C6.71853291,0 0,6.71853291 0,14.9763594 C0,23.2341858 6.71853291,29.9527187 14.9763594,29.9527187 C23.2341858,29.9527187 29.9527187,23.2341858 29.9527187,14.9763594 C29.9527187,6.71853291 23.2341858,0 14.9763594,0 Z M14.9763587,1.87206531 C22.2021738,1.87206531 28.080652,7.7505434 28.080652,14.9763584 C28.080652,17.9866844 27.0498911,20.7547278 25.3370107,22.9696734 C18.7670108,19.8603257 11.1855978,19.8603257 4.61570658,22.9696734 C2.90282616,20.7547278 1.87206531,17.9866844 1.87206531,14.9763584 C1.87206531,7.7505434 7.75054351,1.87206531 14.9763587,1.87206531 Z M5.92885852,24.4332061 C11.7042934,21.8751083 18.2484239,21.8751083 24.0238588,24.4332061 C21.6692935,26.686793 18.4853261,28.0807604 14.9763587,28.0807604 C11.4673912,28.0807604 8.28342377,26.6867386 5.92885852,24.4332061 Z" id="Shape"></path>
                <path d="M14.9763583,18.7204349 C18.0732604,18.7204349 20.5924995,16.2012502 20.5924995,13.1042937 C20.5924995,10.0073372 18.0732604,7.4881525 14.9763583,7.4881525 C11.8794562,7.4881525 9.36021709,10.0073372 9.36021709,13.1042937 C9.36021709,16.2012502 11.8794562,18.7204349 14.9763583,18.7204349 Z M14.9763587,9.36021781 C17.0413044,9.36021781 18.7204349,11.0394027 18.7204349,13.1042941 C18.7204349,15.1692398 17.04125,16.8483703 14.9763587,16.8483703 C12.9114129,16.8483703 11.2322824,15.1691855 11.2322824,13.1042941 C11.2322824,11.0394027 12.9114673,9.36021781 14.9763587,9.36021781 Z" id="Shape"></path>
            </g>
        </g>
    </g>
</svg>