<?xml version="1.0" encoding="UTF-8"?>
<svg width="25px" height="25px" viewBox="0 0 25 25" version="1.1" xmlns="http://www.w3.org/2000/svg" xmlns:xlink="http://www.w3.org/1999/xlink">
    <title>459BD15E-8696-4D33-A832-7639848513AA</title>
    <g id="Asset-Artboard-Page" stroke="none" stroke-width="1" fill="none" fill-rule="evenodd">
        <g id="icon/facebook-copy" fill="#0E723C" fill-rule="nonzero">
            <path d="M12.503125,0 L12.496875,0 C5.6046875,0 0,5.60625 0,12.5 C0,15.234375 0.88125,17.76875 2.3796875,19.8265625 L0.821875,24.4703125 L5.6265625,22.934375 C7.603125,24.24375 9.9609375,25 12.503125,25 C19.3953125,25 25,19.3921875 25,12.5 C25,5.6078125 19.3953125,0 12.503125,0 Z M19.7765625,17.6515625 C19.475,18.503125 18.278125,19.209375 17.3234375,19.415625 C16.6703125,19.5546875 15.8171875,19.665625 12.9453125,18.475 C9.271875,16.953125 6.90625,13.2203125 6.721875,12.978125 C6.5453125,12.7359375 5.2375,11.0015625 5.2375,9.2078125 C5.2375,7.4140625 6.1484375,6.540625 6.515625,6.165625 C6.8171875,5.8578125 7.315625,5.7171875 7.79375,5.7171875 C7.9484375,5.7171875 8.0875,5.725 8.2125,5.73125 C8.5796875,5.746875 8.7640625,5.76875 9.00625,6.3484375 C9.3078125,7.075 10.0421875,8.86875 10.1296875,9.053125 C10.21875,9.2375 10.3078125,9.4875 10.1828125,9.7296875 C10.065625,9.9796875 9.9625,10.090625 9.778125,10.303125 C9.59375,10.515625 9.41875,10.678125 9.234375,10.90625 C9.065625,11.1046875 8.875,11.3171875 9.0875,11.684375 C9.3,12.04375 10.034375,13.2421875 11.115625,14.2046875 C12.5109375,15.446875 13.6421875,15.84375 14.046875,16.0125 C14.3484375,16.1375 14.7078125,16.1078125 14.928125,15.8734375 C15.2078125,15.571875 15.553125,15.071875 15.9046875,14.5796875 C16.1546875,14.2265625 16.4703125,14.1828125 16.8015625,14.3078125 C17.1390625,14.425 18.925,15.3078125 19.2921875,15.490625 C19.659375,15.675 19.9015625,15.7625 19.990625,15.9171875 C20.078125,16.071875 20.078125,16.7984375 19.7765625,17.6515625 Z" id="Shape"></path>
        </g>
    </g>
</svg>