<?xml version="1.0" encoding="UTF-8"?>
<svg width="92px" height="92px" viewBox="0 0 92 92" version="1.1" xmlns="http://www.w3.org/2000/svg" xmlns:xlink="http://www.w3.org/1999/xlink">
    <title>9E42FDC2-1567-4F94-946F-830D95216C07</title>
    <g id="Asset-Artboard-Page" stroke="none" stroke-width="1" fill="none" fill-rule="evenodd">
        <g id="icon_play" fill="#FFFFFF" fill-rule="nonzero">
            <path d="M13.480578,13.4803888 C31.4555813,-4.49481201 60.547072,-4.49211379 78.5195569,13.4803888 C96.49492,31.4554097 96.4920419,60.5472885 78.5195569,78.5196112 C60.5445536,96.494812 31.453063,96.4921138 13.480578,78.5196112 C-4.49496501,60.5445903 -4.49208691,31.4527115 13.480578,13.4803888 Z M45.9998887,7.56534441 C24.8069873,7.56534441 7.5651799,24.8069887 7.5651799,45.9999106 C7.5651799,67.1928325 24.8069873,84.4346567 45.9998887,84.4346567 C67.1929699,84.4346567 84.4345975,67.1930124 84.4345975,46.0000905 C84.4345975,24.8071686 67.19279,7.56534441 45.9998887,7.56534441 Z M36.4661765,32.5688766 C36.4661765,29.4317429 40.0852095,27.6595502 42.5628952,29.5869807 L42.5628952,29.5869807 L59.8315052,43.0181941 C61.7758428,44.530638 61.7735043,47.4711612 59.8315052,48.9818062 L59.8315052,48.9818062 L42.5628952,62.4130196 C40.1087739,64.3213827 36.4661765,62.5903828 36.4661765,59.4311237 L36.4661765,59.4311237 Z M44.0211931,40.2924499 L44.0211931,51.7073714 L51.3594528,45.9999106 L44.0211931,40.2924499 Z" id="Combined-Shape"></path>
        </g>
    </g>
</svg>