<?xml version="1.0" encoding="UTF-8"?>
<svg width="25px" height="25px" viewBox="0 0 25 25" version="1.1" xmlns="http://www.w3.org/2000/svg" xmlns:xlink="http://www.w3.org/1999/xlink">
    <title>icon/facebook copy</title>
    <g id="Page-1" stroke="none" stroke-width="1" fill="none" fill-rule="evenodd">
        <g id="haifa_hp" transform="translate(-69.000000, -12.000000)" fill="#FFFFFF" fill-rule="nonzero">
            <g id="header">
                <g id="icon/facebook-copy" transform="translate(69.000000, 12.000000)">
                    <path d="M23.5155738,0.000409836066 L1.37377049,0.000409836066 C0.61557377,0.000409836066 0,0.614754098 0,1.37418033 L0,23.5159836 C0,24.2754098 0.61557377,24.8905738 1.37377049,24.8905738 L13.2942623,24.8905738 L13.2942623,15.2516393 L10.0508197,15.2516393 L10.0508197,11.4946721 L13.2942623,11.4946721 L13.2942623,8.72418033 C13.2942623,5.50983607 15.2569672,3.75860656 18.125,3.75860656 C19.5,3.75860656 20.6790984,3.86147541 21.0229508,3.90614754 L21.0229508,7.26598361 L19.0336066,7.26680328 C17.4741803,7.26680328 17.1733607,8.00819672 17.1733607,9.0954918 L17.1733607,11.4934426 L20.8938525,11.4934426 L20.407377,15.25 L17.1729508,15.25 L17.1729508,24.8893443 L23.5151639,24.8893443 C24.2741803,24.8893443 24.8901639,24.2733607 24.8901639,23.5159836 L24.8901639,1.37336066 C24.8897541,0.614754098 24.2745902,0.000409836066 23.5155738,0.000409836066 Z" id="facebook"></path>
                </g>
            </g>
        </g>
    </g>
</svg>