<?xml version="1.0" encoding="UTF-8"?>
<svg width="30px" height="26px" viewBox="0 0 30 26" version="1.1" xmlns="http://www.w3.org/2000/svg" xmlns:xlink="http://www.w3.org/1999/xlink">
    <title>icon_gallery</title>
    <g id="איזור-משחק" stroke="none" stroke-width="1" fill="none" fill-rule="evenodd">
        <g id="haifa_gameArea_live_mobile" transform="translate(-312.000000, -538.000000)" fill="#FFFFFF" fill-rule="nonzero">
            <g id="Menu" transform="translate(0.000000, 525.000000)">
                <g id="Group-2" transform="translate(12.000000, 13.000000)">
                    <g id="icon/arrow-copy" transform="translate(300.000000, 0.000000)">
                        <path d="M6.24748072,16.7989203 C6.99771208,16.2229049 8.05449871,16.274036 8.74557841,16.9197686 L8.74557841,16.9197686 L13.1373779,20.7877635 C13.8043188,21.3477378 14.643856,21.6607712 15.5146272,21.6741902 C16.1954499,21.6825193 16.86509,21.5011311 17.4485861,21.1503856 L17.4485861,21.1503856 L25.3860925,16.5571465 L25.3860925,24.3736504 C25.3860925,25.2600771 24.4996658,25.9047301 23.6132391,25.9047301 L23.6132391,25.9047301 L1.49313625,25.9047301 C1.45187661,25.905964 1.41053985,25.9053739 1.36935733,25.9031105 C0.569537275,25.8582262 -0.0425706941,25.1734704 0.00231362468,24.3736504 L0.00231362468,24.3736504 L0.00231362468,21.3920823 Z M6.36923447,0.0310924948 L6.52958869,0.0375578406 L28.4885861,2.5759126 C28.921928,2.60915167 29.3192545,2.82987147 29.5764524,3.18030848 C29.8501542,3.50475578 29.9809512,3.92622108 29.9390746,4.34876607 L29.9390746,4.34876607 L28.0454499,20.7071722 C28.0486889,21.1313368 27.8552699,21.5330591 27.5216452,21.7950386 C27.3604627,21.9562211 26.9978406,22.0368123 26.9978406,22.1174036 L26.9978406,22.1174036 L26.9978406,7.89447301 C26.9342159,6.05892031 25.4494859,4.59192802 23.6133162,4.55028278 L23.6133162,4.55028278 L4.35385604,4.55028278 L4.71647815,1.40753213 C4.79514139,1.00056555 5.00791774,0.631696658 5.32087404,0.359922879 C5.67424165,0.115604113 6.101491,0.0016966581 6.52958869,0.0375578406 Z M23.6132391,6.16187661 C24.5602828,6.20113111 25.32509,6.948509 25.3860154,7.89439589 L25.3860154,7.89439589 L25.3860154,14.6633676 L16.6024165,19.7804113 C15.8481748,20.2272494 14.8935733,20.1463496 14.2252442,19.5789717 L14.2252442,19.5789717 L9.79318766,15.7109769 C8.53858612,14.5921851 6.67087404,14.5080463 5.32079692,15.5095373 L5.32079692,15.5095373 L0.00231362468,19.3775321 L0.00231362468,7.89439589 C0.00231362468,7.00796915 0.606709512,6.16187661 1.49313625,6.16187661 L1.49313625,6.16187661 Z M15.1922622,8.70015424 C13.3230077,8.70015424 11.8077378,10.2155013 11.8077378,12.0846787 C11.8077378,13.9539332 13.3230848,15.4692031 15.1922622,15.4692031 C17.0615167,15.4692031 18.5767866,13.9539332 18.5767866,12.0846787 C18.5767866,10.2154242 17.0614396,8.70015424 15.1922622,8.70015424 Z M15.1922622,10.3119023 C16.1713821,10.3119023 16.9651157,11.1056358 16.9651157,12.0847558 C16.9651157,13.0638757 16.1713821,13.8576093 15.1922622,13.8576093 C14.2131423,13.8576093 13.4194087,13.0638757 13.4194087,12.0847558 C13.4194087,11.1056358 14.2131423,10.3119023 15.1922622,10.3119023 Z" id="Combined-Shape"></path>
                    </g>
                </g>
            </g>
        </g>
    </g>
</svg>