<?xml version="1.0" encoding="UTF-8"?>
<svg width="30px" height="30px" viewBox="0 0 30 30" version="1.1" xmlns="http://www.w3.org/2000/svg" xmlns:xlink="http://www.w3.org/1999/xlink">
    <title>icon_video</title>
    <g id="איזור-משחק" stroke="none" stroke-width="1" fill="none" fill-rule="evenodd">
        <g id="haifa_gameArea_live_mobile" transform="translate(-192.000000, -538.000000)" fill="#FFFFFF" fill-rule="nonzero">
            <g id="Menu" transform="translate(0.000000, 525.000000)">
                <g id="Group-2" transform="translate(12.000000, 13.000000)">
                    <g id="icon/play" transform="translate(180.000000, 0.000000)">
                        <path d="M4.39584064,4.39577895 C10.2572548,-1.46569957 19.7436104,-1.46481971 25.6042034,4.39577895 C31.4657348,10.2571988 31.4647963,19.743681 25.6042034,25.6042211 C19.7427892,31.4656996 10.2564336,31.4648197 4.39584064,25.6042211 C-1.46574946,19.7428012 -1.46481095,10.256319 4.39584064,4.39577895 Z M14.9999633,2.46696022 C8.08923484,2.46696022 2.46690648,8.08923541 2.46690648,14.9999707 C2.46690648,21.9107059 8.08923484,27.5330398 14.9999633,27.5330398 C21.9107505,27.5330398 27.5330202,21.9107646 27.5330202,15.0000293 C27.5330202,8.08929407 21.9106918,2.46696022 14.9999633,2.46696022 Z M11.8911444,10.6202857 C11.8911444,9.59730735 13.0712638,9.01941841 13.8792048,9.64792836 L13.8792048,9.64792836 L19.510273,14.0276719 C20.1442961,14.5208601 20.1435336,15.4797264 19.510273,15.9723281 L19.510273,15.9723281 L13.8792048,20.3520716 C13.0789479,20.9743639 11.8911444,20.4099075 11.8911444,19.3797143 L11.8911444,19.3797143 Z M14.3547368,13.1388421 L14.3547368,16.8610992 L16.7476475,14.9999707 L14.3547368,13.1388421 Z" id="Combined-Shape"></path>
                    </g>
                </g>
            </g>
        </g>
    </g>
</svg>