<?xml version="1.0" encoding="UTF-8"?>
<svg width="25px" height="25px" viewBox="0 0 25 25" version="1.1" xmlns="http://www.w3.org/2000/svg" xmlns:xlink="http://www.w3.org/1999/xlink">
    <title>E985305F-EEE0-43C9-B6DF-D4ACBA29B4F1</title>
    <g id="Asset-Artboard-Page" stroke="none" stroke-width="1" fill="none" fill-rule="evenodd">
        <g id="icon/search" fill="#FFFFFF" fill-rule="nonzero">
            <path d="M24.61875,22.7574561 L18.5660714,16.572807 C20.1223214,14.7552632 20.975,12.4684211 20.975,10.0877193 C20.975,4.5254386 16.36875,0 10.7071429,0 C5.04553571,0 0.439285714,4.5254386 0.439285714,10.0877193 C0.439285714,15.65 5.04553571,20.1754386 10.7071429,20.1754386 C12.8325893,20.1754386 14.8580357,19.545614 16.5897321,18.35 L22.6883929,24.5815789 C22.9433036,24.8416667 23.2861607,24.9850877 23.6535714,24.9850877 C24.0013393,24.9850877 24.33125,24.8548246 24.5816964,24.6179825 C25.1138393,24.1149123 25.1308036,23.2807018 24.61875,22.7574561 Z M10.7071429,2.63157895 C14.8919643,2.63157895 18.2964286,5.97631579 18.2964286,10.0877193 C18.2964286,14.1991228 14.8919643,17.5438596 10.7071429,17.5438596 C6.52232143,17.5438596 3.11785714,14.1991228 3.11785714,10.0877193 C3.11785714,5.97631579 6.52232143,2.63157895 10.7071429,2.63157895 Z" id="Shape"></path>
        </g>
    </g>
</svg>