<?xml version="1.0" encoding="UTF-8"?>
<svg width="24px" height="30px" viewBox="0 0 24 30" version="1.1" xmlns="http://www.w3.org/2000/svg" xmlns:xlink="http://www.w3.org/1999/xlink">
    <title>icon_page</title>
    <g id="איזור-משחק" stroke="none" stroke-width="1" fill="none" fill-rule="evenodd">
        <g id="haifa_gameArea_live_mobile" transform="translate(-15.000000, -538.000000)" fill="#FFFFFF" fill-rule="nonzero">
            <g id="Menu" transform="translate(0.000000, 525.000000)">
                <g id="Group-2" transform="translate(12.000000, 13.000000)">
                    <g id="icon/sikum">
                        <path d="M25.96875,0 L25.96875,27.3632812 C25.96875,28.3563996 26.3123016,29.2632294 26.8700866,30 L26.8700866,30 L6.515625,30 C4.58203125,30 3,28.359375 3,26.4257812 L3,26.4257812 L3,0 L25.96875,0 Z M23.3320313,20.2734375 L16.2421875,20.2734375 L16.2421875,25.546875 L23.3320313,25.546875 L23.3320313,20.2734375 Z M14.484375,23.7890625 L5.63671875,23.7890625 L5.63671875,25.546875 L14.484375,25.546875 L14.484375,23.7890625 Z M21.5742188,22.03125 L21.5742188,23.7890625 L18,23.7890625 L18,22.03125 L21.5742188,22.03125 Z M14.484375,20.2734375 L5.63671875,20.2734375 L5.63671875,22.03125 L14.484375,22.03125 L14.484375,20.2734375 Z M23.3320313,16.7578125 L16.2421875,16.7578125 L16.2421875,18.515625 L23.3320313,18.515625 L23.3320313,16.7578125 Z M14.484375,16.7578125 L5.63671875,16.7578125 L5.63671875,18.515625 L14.484375,18.515625 L14.484375,16.7578125 Z M23.3320313,13.2421875 L16.2421875,13.2421875 L16.2421875,15 L23.3320313,15 L23.3320313,13.2421875 Z M14.484375,13.2421875 L5.63671875,13.2421875 L5.63671875,15 L14.484375,15 L14.484375,13.2421875 Z M23.3320313,4.453125 L5.63671875,4.453125 L5.63671875,11.484375 L23.3320313,11.484375 L23.3320313,4.453125 Z M21.5742188,6.2109375 L21.5742188,9.7265625 L7.39453125,9.7265625 L7.39453125,6.2109375 L21.5742188,6.2109375 Z" id="Combined-Shape"></path>
                    </g>
                </g>
            </g>
        </g>
    </g>
</svg>