<?xml version="1.0" encoding="UTF-8"?>
<svg width="30px" height="30px" viewBox="0 0 30 30" version="1.1" xmlns="http://www.w3.org/2000/svg" xmlns:xlink="http://www.w3.org/1999/xlink">
    <title>icon_jersey</title>
    <g id="איזור-משחק" stroke="none" stroke-width="1" fill="none" fill-rule="evenodd">
        <g id="haifa_gameArea_live_mobile" transform="translate(-132.000000, -538.000000)" fill="#FFFFFF" fill-rule="nonzero">
            <g id="Menu" transform="translate(0.000000, 525.000000)">
                <g id="Group-2" transform="translate(12.000000, 13.000000)">
                    <g id="icon/arrow-copy-5" transform="translate(120.000000, 0.000000)">
                        <path d="M5.89285714,0 L5.89285714,1.60714286 L6.96428571,1.60714286 L6.96428571,0 L8.03571429,0 L8.03571429,1.60714286 L9.10714286,1.60714286 L9.10714286,0 L10.2102225,0 C10.4901123,2.4334717 12.550572,4.27028109 15,4.27028109 C17.449428,4.27028109 19.5098877,2.4334717 19.7897775,0 L19.7897775,0 L20.8928571,0 L20.8928571,1.60714286 L21.9642857,1.60714286 L21.9642857,0 L23.0357143,0 L23.0357143,1.60714286 L24.1071429,1.60714286 L24.1071429,0 L24.9567522,0 L30,5.04324777 L30,10.7142857 L25.7142857,10.7142857 L25.7142857,6.96428571 L24.6428571,6.96428571 L24.6428571,30 L5.35714286,30 L5.35714286,6.96428571 L4.28571429,6.96428571 L4.28571429,10.7142857 L-2.66453526e-15,10.7142857 L-2.66453526e-15,5.04324777 L5.04324777,0 L5.89285714,0 Z M4.28571429,11.7857143 L4.28571429,12.8571429 L2.17603713e-14,12.8571429 L2.17603713e-14,11.7857143 L4.28571429,11.7857143 Z M30,11.7857143 L30,12.8571429 L25.7142857,12.8571429 L25.7142857,11.7857143 L30,11.7857143 Z M23.0357143,8.03571429 L19.8214286,8.03571429 C19.5255824,8.03571429 19.2857143,8.27558243 19.2857143,8.57142857 L19.2857143,8.57142857 L19.2857143,10.6549072 C19.2857143,10.829119 19.370466,10.992606 19.5127651,11.0930525 L19.5127651,11.0930525 L21.1199079,12.2238595 C21.3006592,12.350987 21.5407889,12.354126 21.7249407,12.2319684 L21.7249407,12.2319684 L23.3320835,11.1647251 C23.4814453,11.0655867 23.5714286,10.8979144 23.5714286,10.718471 L23.5714286,10.718471 L23.5714286,8.57142857 C23.5714286,8.27558243 23.3315604,8.03571429 23.0357143,8.03571429 L23.0357143,8.03571429 Z M22.5,9.10714286 L22.5,10.4315186 L21.4377267,11.1369978 L20.3571429,10.3768485 L20.3571429,9.10714286 L22.5,9.10714286 Z M21.9642857,6.42857143 L20.8928571,6.42857143 L20.8928571,7.5 L21.9642857,7.5 L21.9642857,6.42857143 Z M20.3571429,6.42857143 L19.2857143,6.42857143 L19.2857143,7.5 L20.3571429,7.5 L20.3571429,6.42857143 Z M23.5714286,6.42857143 L22.5,6.42857143 L22.5,7.5 L23.5714286,7.5 L23.5714286,6.42857143 Z M18.707101,1.46327395e-13 C18.4410749,1.84334893 16.8624442,3.21219308 15,3.21428571 C13.1375558,3.21219308 11.5589251,1.84334893 11.292899,1.46327395e-13 L11.292899,1.46327395e-13 Z" id="Combined-Shape"></path>
                    </g>
                </g>
            </g>
        </g>
    </g>
</svg>