<?xml version="1.0" encoding="UTF-8"?>
<svg width="30px" height="30px" viewBox="0 0 30 30" version="1.1" xmlns="http://www.w3.org/2000/svg" xmlns:xlink="http://www.w3.org/1999/xlink">
    <title>icon_megaphone</title>
    <g id="איזור-משחק" stroke="none" stroke-width="1" fill="none" fill-rule="evenodd">
        <g id="haifa_gameArea_live_mobile" transform="translate(-72.000000, -538.000000)" fill="#FFFFFF" fill-rule="nonzero">
            <g id="Menu" transform="translate(0.000000, 525.000000)">
                <g id="Group-2" transform="translate(12.000000, 13.000000)">
                    <g id="icon/megaphone" transform="translate(60.000000, 0.000000)">
                        <path d="M14.9716959,7.38994152 L14.9716959,18.8088889 C14.6516959,18.7789474 14.3335673,18.7284211 14.0116959,18.7134503 L14.0116959,18.7134503 L11.5265497,18.7134503 L14.6666667,24.9955556 C15.0334503,25.6898246 14.8968421,26.5861988 14.3223392,27.1607018 L14.3223392,27.1607018 L12.0748538,29.3894737 C11.734269,29.7450292 11.2589474,29.9433918 10.7592982,29.9433918 C10.6357895,29.9433918 10.5104094,29.9302924 10.3850292,29.9040936 C9.75251462,29.7768421 9.23789474,29.3408187 9.0077193,28.740117 L9.0077193,28.740117 L5.24631579,18.7134503 L4.67929825,18.7134503 C4.16280702,18.7134503 3.74362573,18.294269 3.74362573,17.7777778 L3.74362573,17.7777778 L3.74362573,16.8421053 L0.936608187,16.8421053 C0.420116959,16.8421053 0.000935672515,16.422924 0.000935672515,15.9064327 L0.000935672515,15.9064327 L0.000935672515,10.2923977 C0.000935672515,9.77590643 0.420116959,9.35672515 0.936608187,9.35672515 L0.936608187,9.35672515 L3.74362573,9.35672515 L3.74362573,8.42105263 C3.74362573,7.9045614 4.16280702,7.48538012 4.67929825,7.48538012 L4.67929825,7.48538012 L14.0023392,7.48538012 C14.3279532,7.47040936 14.6479532,7.41988304 14.9716959,7.38994152 L14.9716959,7.38994152 Z M29.0067836,1.91846539e-13 C29.1003509,1.91846539e-13 29.1845614,0.0280701754 29.2687719,0.0523976608 C29.2874854,0.0580116959 29.3043275,0.0486549708 29.3230409,0.0542690058 C29.328655,0.0561403509 29.3323977,0.063625731 29.3380117,0.065497076 C29.497076,0.127251462 29.6261988,0.233918129 29.7291228,0.364912281 C29.7534503,0.394853801 29.7702924,0.421052632 29.7890058,0.452865497 C29.8788304,0.596959064 29.9424561,0.756023392 29.9424561,0.935672515 L29.9424561,0.935672515 L29.9424561,25.2631579 C29.9424561,25.442807 29.8788304,25.6018713 29.7890058,25.7459649 C29.7684211,25.7777778 29.7515789,25.8039766 29.7291228,25.8339181 C29.6261988,25.9667836 29.497076,26.0715789 29.3380117,26.1333333 C29.3323977,26.1352047 29.328655,26.1426901 29.3230409,26.1445614 C29.2182456,26.180117 29.1134503,26.1988304 29.0067836,26.1988304 C28.8701754,26.1988304 28.742924,26.1670175 28.6250292,26.1164912 C28.5969591,26.1033918 28.5745029,26.0790643 28.5464327,26.0622222 C28.4603509,26.0135673 28.379883,25.9555556 28.314386,25.8825731 C28.3050292,25.871345 28.2919298,25.8676023 28.2844444,25.8582456 C25.3670175,22.3157895 21.2987135,19.948538 16.8430409,19.0802339 L16.8430409,19.0802339 L16.8430409,7.12046784 C21.2987135,6.25216374 25.3670175,3.88304094 28.2844444,0.340584795 C28.2919298,0.333099415 28.3031579,0.33122807 28.3106433,0.32374269 C28.4210526,0.200233918 28.5595322,0.110409357 28.7204678,0.0580116959 C28.7560234,0.0467836257 28.7897076,0.0449122807 28.8252632,0.0374269006 C28.8870175,0.0243274854 28.9431579,1.91846539e-13 29.0067836,1.91846539e-13 Z" id="Combined-Shape"></path>
                    </g>
                </g>
            </g>
        </g>
    </g>
</svg>