<?xml version="1.0" encoding="UTF-8"?>
<svg width="24px" height="30px" viewBox="0 0 24 30" version="1.1" xmlns="http://www.w3.org/2000/svg" xmlns:xlink="http://www.w3.org/1999/xlink">
    <title>icon_report</title>
    <g id="איזור-משחק" stroke="none" stroke-width="1" fill="none" fill-rule="evenodd">
        <g id="haifa_gameArea_live_mobile" transform="translate(-255.000000, -538.000000)" fill="#FFFFFF" fill-rule="nonzero">
            <g id="Menu" transform="translate(0.000000, 525.000000)">
                <g id="Group-2" transform="translate(12.000000, 13.000000)">
                    <g id="icon/arrow-copy-3" transform="translate(240.000000, 0.000000)">
                        <path d="M9.90210938,-1.59279997e-13 L9.90210938,1.58203125 C9.90210938,3.03591797 11.0687109,4.21875 12.5027344,4.21875 L12.5027344,4.21875 L17.8487695,4.21875 C19.2827344,4.21875 20.4493359,3.03591797 20.4493359,1.58203125 L20.4493359,1.58203125 L20.4493359,-1.59279997e-13 L25.7226563,-1.59279997e-13 C26.2080469,-1.59279997e-13 26.6015625,0.393515625 26.6015625,0.87890625 L26.6015625,0.87890625 L26.6015625,29.1210352 C26.6015625,29.6064258 26.2080469,29.9999414 25.7226563,29.9999414 L25.7226563,29.9999414 L4.62890625,29.9999414 C4.14351563,29.9999414 3.75,29.6064258 3.75,29.1210352 L3.75,29.1210352 L3.75,0.87890625 C3.75,0.393515625 4.14351563,-1.59279997e-13 4.62890625,-1.59279997e-13 L4.62890625,-1.59279997e-13 L9.90210938,-1.59279997e-13 Z M14.2964648,23.671875 L8.14447266,23.671875 C7.65908203,23.671875 7.26556641,24.0653906 7.26556641,24.5507812 C7.26556641,25.0361719 7.65908203,25.4296875 8.14447266,25.4296875 L8.14447266,25.4296875 L14.2964648,25.4296875 C14.7818555,25.4296875 15.1753711,25.0361719 15.1753711,24.5507812 C15.1753711,24.0653906 14.7818555,23.671875 14.2964648,23.671875 L14.2964648,23.671875 Z M22.2068555,20.15625 L8.14447266,20.15625 C7.65908203,20.15625 7.26556641,20.5497656 7.26556641,21.0351562 C7.26556641,21.5205469 7.65908203,21.9140625 8.14447266,21.9140625 L8.14447266,21.9140625 L22.2068555,21.9140625 C22.6922461,21.9140625 23.0857617,21.5205469 23.0857617,21.0351562 C23.0857617,20.5497656 22.6922461,20.15625 22.2068555,20.15625 L22.2068555,20.15625 Z M22.2068555,16.640625 L8.14447266,16.640625 C7.65908203,16.640625 7.26556641,17.0341406 7.26556641,17.5195312 C7.26556641,18.0049219 7.65908203,18.3984375 8.14447266,18.3984375 L8.14447266,18.3984375 L22.2068555,18.3984375 C22.6922461,18.3984375 23.0857617,18.0049219 23.0857617,17.5195312 C23.0857617,17.0341406 22.6922461,16.640625 22.2068555,16.640625 L22.2068555,16.640625 Z M13.4179102,7.03113281 C12.9325195,7.03113281 12.5390039,7.42464844 12.5390039,7.91003906 L12.5390039,7.91003906 L12.5390039,13.125 L10.78125,13.125 L10.78125,12.1353516 C10.78125,11.6499609 10.3877344,11.2564453 9.90234375,11.2564453 C9.41695313,11.2564453 9.0234375,11.6499609 9.0234375,12.1353516 L9.0234375,12.1353516 L9.0234375,13.125 L8.14441406,13.125 C7.65902344,13.125 7.26550781,13.5185156 7.26550781,14.0039062 C7.26550781,14.4892969 7.65902344,14.8828125 8.14441406,14.8828125 L8.14441406,14.8828125 L22.2071484,14.8828125 C22.6925977,14.8828125 23.0861133,14.4892969 23.0861133,14.0039062 C23.0861133,13.5185156 22.6925977,13.125 22.207207,13.125 L22.207207,13.125 L21.328125,13.125 L21.328125,9.89835937 C21.328125,9.41296875 20.9346094,9.01945312 20.4492188,9.01945312 C19.9638281,9.01945312 19.5703125,9.41296875 19.5703125,9.89835937 L19.5703125,9.89835937 L19.5703125,13.125 L17.8125,13.125 L17.8125,11.2628906 C17.8125,10.7775 17.4189844,10.3839844 16.9335937,10.3839844 C16.4482031,10.3839844 16.0546875,10.7775 16.0546875,11.2628906 L16.0546875,11.2628906 L16.0546875,13.125 L14.2968164,13.125 L14.2968164,7.91003906 C14.2968164,7.42464844 13.9033008,7.03113281 13.4179102,7.03113281 Z M18.6914648,-1.32634644e-13 L18.6914648,1.58203125 C18.6914648,2.06666016 18.313418,2.4609375 17.8487109,2.4609375 L17.8487109,2.4609375 L12.5027344,2.4609375 C12.0380273,2.4609375 11.6599805,2.06666016 11.6599805,1.58203125 L11.6599805,1.58203125 L11.6599805,-1.32634644e-13 L18.6914648,-1.32634644e-13 Z" id="Combined-Shape"></path>
                    </g>
                </g>
            </g>
        </g>
    </g>
</svg>