<?xml version="1.0" encoding="UTF-8"?>
<svg width="40px" height="40px" viewBox="0 0 40 40" version="1.1" xmlns="http://www.w3.org/2000/svg" xmlns:xlink="http://www.w3.org/1999/xlink">
    <title>A9BC3D56-ABED-4138-90D7-53259C948A3D</title>
    <g id="Asset-Artboard-Page" stroke="none" stroke-width="1" fill="none" fill-rule="evenodd">
        <g id="icon/play" fill="#FFFFFF" fill-rule="nonzero">
            <path d="M5.86112085,5.8610386 C13.6763397,-1.95426609 26.3248139,-1.95309295 34.1389378,5.8610386 C41.9543131,13.6762651 41.9530617,26.3249081 34.1389378,34.1389614 C26.323719,41.9542661 13.6752448,41.953093 5.86112085,34.1389614 C-1.95433261,26.3237349 -1.95308126,13.6750919 5.86112085,5.8610386 Z M19.9999511,3.28928029 C10.7856465,3.28928029 3.28920864,10.7856472 3.28920864,19.9999609 C3.28920864,29.2142746 10.7856465,36.7107197 19.9999511,36.7107197 C29.214334,36.7107197 36.7106936,29.2143528 36.7106936,20.0000391 C36.7106936,10.7857254 29.2142558,3.28928029 19.9999511,3.28928029 Z M15.8548592,14.160381 C15.8548592,12.7964098 17.4283517,12.0258912 18.5056064,12.8639045 L18.5056064,12.8639045 L26.0136974,18.7035626 C26.8590615,19.3611469 26.8580448,20.6396352 26.0136974,21.2964374 L26.0136974,21.2964374 L18.5056064,27.1360955 C17.4385972,27.9658186 15.8548592,27.2132099 15.8548592,25.839619 L15.8548592,25.839619 Z M19.139649,17.5184562 L19.139649,22.4814656 L22.3301967,19.9999609 L19.139649,17.5184562 Z" id="Combined-Shape"></path>
        </g>
    </g>
</svg>